# xmcd CD database file
#
# Track frame offsets:
#	175
#	29955
#	55567
#	80322
#	103382
#	130975
#	157737
#	189027
#	209492
#	232457
#	252360
#	270847
#	285090
#	306437
#
# Disc length: 4314 seconds
#
# Revision: 14
# Processed by: cddbd v1.4PL0 Copyright (c) Steve Scherf et al.
# Submitted via: CDex 1.50beta10
#
DISCID=c010d80e
DTITLE=Msg: http://www.cddb.com/lic/cdex - Http://www.cddb.com/lic/cdex
DYEAR=1900
DGENRE=New Age
TTITLE0=Msg: your cd player application is either not licensed to use the
TTITLE1=Msg: gracenote(tm) cddb(tm) service or its license has expired.
TTITLE2=Msg: if you are unsure what this means, please see our web site
TTITLE3=Msg: at: http://www.cddb.com/lic/cdex
TTITLE4=Msg: if you are a developer and feel you have received this
TTITLE5=Msg: message in error or wish to get your application licensed,
TTITLE6=Msg: please contact support for assistance.
TTITLE7=Msg: 
TTITLE8=Msg: 
TTITLE9=Msg: 
TTITLE10=Msg: your cd player application is either not licensed to use the
TTITLE11=Msg: gracenote(tm) cddb(tm) service or its license has expired.
TTITLE12=Msg: if you are unsure what this means, please see our web site
TTITLE13=Msg: at: http://www.cddb.com/lic/cdex
EXTD=Jon Bailey, Artistic Director\nEddy Clement, Producer\nCopyright © 1998 and (P) 1998 Gay Men's Chorus of Los Angeles, All Rights Reserved.
EXTT0=
EXTT1=
EXTT2=
EXTT3=
EXTT4=
EXTT5=
EXTT6=
EXTT7=
EXTT8=
EXTT9=
EXTT10=
EXTT11=
EXTT12=
EXTT13=
PLAYORDER=
